<svg version="1.1" xmlns="http://www.w3.org/2000/svg" xmlns:xlink="http://www.w3.org/1999/xlink" width="81.40175" height="148.59076" viewBox="0,0,81.40175,148.59076"><defs><linearGradient x1="214.61298" y1="151.18939" x2="214.61298" y2="161.07622" gradientUnits="userSpaceOnUse" id="color-1"><stop offset="0" stop-color="#ff0000"></stop><stop offset="0.333" stop-color="#ffff00"></stop><stop offset="0.5" stop-color="#00ff00"></stop><stop offset="0.666" stop-color="#00ffff"></stop><stop offset="0.833" stop-color="#0000ff"></stop><stop offset="1" stop-color="#ff00ff"></stop></linearGradient></defs><g transform="translate(-199.29913,-105.70462)"><g data-paper-data="{&quot;isPaintingLayer&quot;:true}" fill-rule="nonzero" stroke-linejoin="miter" stroke-miterlimit="10" stroke-dasharray="" stroke-dashoffset="0" style="mix-blend-mode: normal"><path d="M239.4512,204.45216l0.53416,-28.01863" fill="none" stroke="#000000" stroke-width="3" stroke-linecap="round"></path><path d="M239.50008,204.29503c0,0 -2.11869,22.67346 -6.30505,45.9728" fill="none" stroke="#000000" stroke-width="3" stroke-linecap="round"></path><path d="M239.50008,204.29503c0,0 3.0992,22.53213 5.32468,44.16129" fill="none" stroke="#000000" stroke-width="3" stroke-linecap="round"></path><path d="M242.69952,212.89249l0.08355,-12.37023c0,0 5.37175,-2.81884 5.36627,-4.25083c-0.05725,-14.95572 -8.06704,-15.54859 -8.06704,-15.54859" fill="none" stroke="#000000" stroke-width="3" stroke-linecap="round"></path><path d="M240.08231,180.72284l-7.24931,34.69033" fill="none" stroke="#000000" stroke-width="3" stroke-linecap="round"></path><path d="M238.09976,246.81717c3.0846,0 6.52792,0.47144 6.52792,3.7391c0,3.26767 -3.45017,3.73911 -6.52792,3.73911c-3.07776,0 -6.52792,-0.53673 -6.52792,-3.73911c0,-3.20238 3.44332,-3.7391 6.52792,-3.7391z" fill="#000000" stroke="none" stroke-width="0" stroke-linecap="butt"></path><path d="M249.79038,244.48052c3.08461,0 6.52792,0.47145 6.52792,3.73911c0,3.26767 -3.45017,3.73911 -6.52792,3.73911c-3.07776,0 -6.52792,-0.53673 -6.52792,-3.73911c0,-3.20239 3.44332,-3.73911 6.52792,-3.73911z" fill="#000000" stroke="none" stroke-width="0" stroke-linecap="butt"></path><g stroke="#000000" stroke-width="1.75" stroke-linecap="butt"><path d="M262.90459,146.4304c4.3549,0.38694 6.76741,5.00139 6.39145,10.30379c-0.37595,5.30239 -3.423,9.43178 -7.76341,9.04614c-4.3404,-0.38564 -6.74819,-5.27238 -6.39145,-10.30379c0.35674,-5.03142 3.40851,-9.43307 7.76341,-9.04614z" fill="#4c4e5a"></path><path d="M266.4927,156.17365c-0.67672,9.3904 -4.24242,12.42992 -8.47255,12.09654c-4.23013,-0.33337 -7.29523,-6.28967 -6.8461,-13.30378c0.44914,-7.01411 4.24242,-12.42992 8.47255,-12.09654c4.23013,0.33337 7.61567,2.62487 6.8461,13.30378z" fill="#3b3d49"></path></g><path d="M223.27082,163.69113c0,0 -16.31764,0.87527 -23.01739,-20.51744c-0.2423,-0.77368 3.42449,2.34459 7.80797,1.65937c3.33004,-0.52056 6.86296,-3.04976 6.63941,-3.33944c-10.10187,-13.08987 -1.41788,-21.85261 -0.64331,-20.94935c6.43604,9.95498 12.23256,9.32961 12.22608,9.24217c-1.21757,-16.42959 12.26086,-23.05086 12.53662,-23.08182c0.79177,-0.08886 -1.96837,10.45522 6.23502,19.44672c0,0 0.28304,0.93424 0.61528,-0.21671c0.77386,-2.68085 7.34901,-12.38554 20.96359,-9.63321c0.47243,0.02599 -6.95106,9.20474 -8.25314,15.56337c-0.02586,0.12627 0.13861,0.46402 0.99671,0.35716c15.59824,-1.94265 20.86285,9.72648 20.28022,9.71192c-13.61838,-0.34014 -18.25533,4.98872 -18.25533,4.98872" fill="#0084ff" stroke="#000000" stroke-width="2" stroke-linecap="round"></path><path d="M227.40177,176.37637c0.73517,1.581 4.75784,18.71837 4.75544,18.81075c-0.00239,0.09236 -2.35041,0.10636 -5.24442,0.03124c-2.89402,-0.0751 -5.23815,-0.21087 -5.23573,-0.30323c0,0 4.50404,-21.16382 5.72471,-18.53877z" fill="#0084ff" stroke="#000000" stroke-width="2" stroke-linecap="butt"></path><path d="M226.94805,176.97541c0.12804,1.92918 -2.56557,21.26221 -2.60499,21.35677c-0.03941,0.09456 -2.47343,-0.83004 -5.43649,-2.06517c-2.96307,-1.23512 -5.33316,-2.31305 -5.29375,-2.40762c0,0 13.12263,-20.08712 13.33523,-16.88398z" fill="#0084ff" stroke="#000000" stroke-width="2" stroke-linecap="butt"></path><path d="M217.89281,154.4035c0,-12.30959 9.44523,-22.30341 22.30341,-22.30341c12.85818,0 22.30341,9.40504 22.30341,22.30341c0,12.89838 -9.40203,22.30342 -22.30341,22.30342c-12.90137,0 -22.30341,-9.99383 -22.30341,-22.30342z" fill="#ffffff" stroke="#000000" stroke-width="2" stroke-linecap="butt"></path><path d="M228.70602,173.65941c2.28732,0.24376 8.5412,1.35466 11.59979,1.35466c3.61277,0 9.5765,-0.98709 12.03576,-1.14503c2.72682,-0.17513 1.75894,0.59699 1.75894,3.30637c0,3.55316 0.74202,4.03401 -3.57916,3.79493c-1.94553,-0.10764 -7.85031,-0.61188 -10.21554,-0.61188c-3.25733,0 -9.76235,0.43868 -12.12236,0.44821c-3.15983,0.01275 -1.67235,-0.68149 -1.67235,-3.63125c0,-3.0842 -1.21522,-3.87942 2.19491,-3.51599z" fill="#0084ff" stroke="#000000" stroke-width="2" stroke-linecap="butt"></path><g stroke-linecap="round"><path d="M252.74904,127.50693l7.40705,11.90212c-4.80766,2.39884 -10.73554,1.66154 -13.06612,1.09819c-0.82837,-0.20023 1.80623,3.05518 0.8618,2.91748c-1.78061,-0.25965 -8.9463,-1.00328 -12.31491,-1.34846c-1.07751,-0.11041 0.98478,3.2006 0.39571,3.43465c-1.23582,0.49102 -8.80935,-0.06443 -11.67928,-0.0267c-0.7836,0.0103 2.11031,2.89003 1.24903,3.13599c-1.40381,0.40091 -8.1558,-0.67234 -8.1558,-0.67234l-0.11337,-13.71251" fill="#0084ff" stroke="none" stroke-width="0"></path><path d="M260.1477,139.22682c-4.80766,2.39884 -10.73556,1.66153 -13.06612,1.09819c-0.82837,-0.20023 1.80623,3.05518 0.8618,2.91747c-1.78061,-0.25965 -8.94629,-1.00328 -12.31491,-1.34846c-1.07751,-0.11041 0.98479,3.2006 0.39571,3.43466c-1.23582,0.49102 -8.80935,-0.06444 -11.6793,-0.02671c-0.7836,0.0103 2.11031,2.89004 1.24903,3.136c-1.40381,0.40091 -5.08334,0.5704 -8.1558,-0.67235" fill="none" stroke="#000000" stroke-width="2"></path></g><g stroke="none" stroke-width="0" stroke-linecap="butt"><path d="M235.70764,141.28784c5.70787,0 10.0904,5.83607 10.0904,13.03524c0,7.19918 -4.38253,13.03525 -10.0904,13.03525c-5.70787,0 -10.57962,-5.83607 -10.57962,-13.03525c0,-7.19917 4.87175,-13.03524 10.57962,-13.03524z" fill="#000000"></path><path d="M265.31259,154.32309c0,7.19918 -4.87175,13.03525 -10.57962,13.03525c-5.70787,0 -10.0904,-5.83607 -10.0904,-13.03525c0,-7.19917 4.38253,-13.03524 10.0904,-13.03524c5.70787,0 10.57962,5.83607 10.57962,13.03524z" fill="#000000"></path><path d="M235.67421,142.94553c4.92791,0 8.71159,5.12438 8.71159,11.44563c0,6.32124 -3.78368,11.44563 -8.71159,11.44563c-4.92791,0 -9.13397,-5.12437 -9.13397,-11.44563c0,-6.32124 4.20606,-11.44563 9.13397,-11.44563z" fill="#ffffff"></path><path d="M263.90036,154.39117c0,6.32125 -4.20606,11.44563 -9.13397,11.44563c-4.92791,0 -8.7116,-5.12438 -8.7116,-11.44563c0,-6.32124 3.78369,-11.44563 8.7116,-11.44563c4.92791,0 9.13397,5.12438 9.13397,11.44563z" fill="#ffffff"></path></g><path d="M228.51942,154.93991c0,-1.54286 1.25073,-2.79358 2.79358,-2.79358c1.54286,0 2.79358,1.25072 2.79358,2.79358c0,1.54286 -1.25073,2.79357 -2.79358,2.79357c-1.54286,0 -2.79358,-1.25072 -2.79358,-2.79357z" fill="#000000" stroke="none" stroke-width="0" stroke-linecap="butt"></path><path d="M248.32903,155.2201c0,-1.54286 1.25073,-2.79358 2.79358,-2.79358c1.54286,0 2.79358,1.25072 2.79358,2.79358c0,1.54286 -1.25073,2.79357 -2.79358,2.79357c-1.54286,0 -2.79358,-1.25072 -2.79358,-2.79357z" fill="#000000" stroke="none" stroke-width="0" stroke-linecap="butt"></path><path d="M227.73759,152.82947v-1.57249h7.13664v1.57249z" fill="#000000" stroke="none" stroke-width="0" stroke-linecap="butt"></path><path d="M247.81186,153.06087l-0.22959,-1.55563l7.06017,-1.04196l0.22959,1.55563z" fill="#000000" stroke="none" stroke-width="0" stroke-linecap="butt"></path><path d="M240.74888,125.96951c-10.24508,0 -18.81054,7.5525 -20.92397,17.6454c-0.52963,-0.03729 -1.06432,-0.05625 -1.60344,-0.05625c-0.47082,0 -0.93826,0.01446 -1.40191,0.04296c1.51152,-12.47992 11.74352,-22.1321 24.14092,-22.1321c2.33487,0 4.59293,0.34237 6.73039,0.9815c-1.04484,1.21182 -2.06613,3.95261 -2.06613,3.95261c0,0 -3.43516,-0.43411 -4.87586,-0.43411z" fill="#3b3d49" stroke="#000000" stroke-width="1.75" stroke-linecap="butt"></path><g stroke-linecap="butt"><path d="M218.24667,142.86987c4.23013,-0.33338 8.02341,5.08243 8.47255,12.09654c0.44913,7.01411 -2.61597,12.97041 -6.8461,13.30378c-4.23013,0.33338 -7.79583,-2.70614 -8.47255,-12.09654c-0.76957,-10.67891 2.61597,-12.97041 6.8461,-13.30378z" fill="#3b3d49" stroke="#000000" stroke-width="1.75"></path><path d="M222.75208,155.47654c0.35674,5.03141 -2.05105,9.91815 -6.39145,10.30379c-4.34041,0.38564 -7.38746,-3.74375 -7.76341,-9.04614c-0.37596,-5.3024 2.03655,-9.91685 6.39145,-10.30379c4.3549,-0.38693 7.40667,4.01472 7.76341,9.04614z" fill="#4c4e5a" stroke="#000000" stroke-width="1.75"></path><path d="M214.61299,159.84993l-2.60517,2.08402c-0.0747,0.06202 -0.15407,0.08994 -0.23811,0.08373c-0.08404,-0.0062 -0.15874,-0.04032 -0.2241,-0.10234c-0.06536,-0.06202 -0.11438,-0.14266 -0.14706,-0.24189c-0.03268,-0.09923 -0.03969,-0.21088 -0.02101,-0.33494l0.68631,-3.94476l-2.29703,-2.66085c-0.0747,-0.08683 -0.11905,-0.18297 -0.13306,-0.28842c-0.01401,-0.10545 -0.01167,-0.20778 0.00701,-0.30702c0.01867,-0.09923 0.06069,-0.18297 0.12606,-0.2512c0.06536,-0.06822 0.14473,-0.10854 0.23811,-0.12095l3.03936,-0.35354l1.17652,-3.72147c0.03735,-0.11165 0.09338,-0.19537 0.16807,-0.2512c0.0747,-0.05582 0.1494,-0.08373 0.2241,-0.08373c0.0747,0 0.1494,0.02791 0.2241,0.08373c0.0747,0.05582 0.13073,0.13955 0.16807,0.2512l1.17652,3.72147l3.03936,0.35354c0.09338,0.0124 0.17274,0.05272 0.23811,0.12095c0.06536,0.06822 0.10738,0.15196 0.12606,0.2512c0.01867,0.09923 0.02101,0.20158 0.00701,0.30702c-0.01401,0.10545 -0.05836,0.20158 -0.13306,0.28842l-2.29703,2.66085l0.68631,3.94476c0.01867,0.12405 0.01167,0.23569 -0.02101,0.33494c-0.03268,0.09923 -0.0817,0.17987 -0.14706,0.24189c-0.06536,0.06202 -0.14006,0.09614 -0.2241,0.10234c-0.08404,0.0062 -0.16341,-0.0217 -0.2381,-0.08373z" fill="url(#color-1)" stroke="none" stroke-width="1"></path></g><path d="M227.23207,169.59363c3.82732,-3.82732 14.02354,3.74991 19.47296,0.14009" fill="none" stroke="#000000" stroke-width="1" stroke-linecap="round"></path></g></g></svg>