<svg version="1.1" xmlns="http://www.w3.org/2000/svg" xmlns:xlink="http://www.w3.org/1999/xlink" width="146.96096" height="81.80087" viewBox="0,0,146.96096,81.80087"><g transform="translate(-166.51952,-140.25267)"><g data-paper-data="{&quot;isPaintingLayer&quot;:true}" fill-rule="nonzero" stroke="none" stroke-linejoin="miter" stroke-miterlimit="10" stroke-dasharray="" stroke-dashoffset="0" style="mix-blend-mode: normal"><g stroke-width="0" stroke-linecap="round"><path d="M223.4926,185.49434c-5.56358,3.60502 -14.27797,8.59134 -22.87563,11.66785c-13.25047,4.74145 -24.45688,7.27114 -29.03323,7.73055c-1.35749,0.13627 -2.52959,-1.18502 -2.67985,-1.69503c-2.80061,-9.50588 -2.58771,-15.44568 -2.0647,-19.22622c0.12591,-0.91024 0.33882,-1.67417 0.49637,-2.34347c0.09374,-0.39824 0.92945,-1.21147 2.33216,-1.0413c3.59852,0.43656 11.6509,1.67967 23.51253,2.39428c11.02462,0.6642 21.27695,-0.00009 28.46353,-0.80757c3.29831,-0.37059 5.88271,0.70708 1.84882,3.32091z" fill="#000000"/><path d="M222.113,184.18044c1.03561,-0.16114 -11.52956,8.09984 -23.83101,12.04909c-14.25024,4.5749 -26.4051,6.48496 -26.6674,5.73892c-2.78776,-7.92893 -2.52968,-13.60073 -2.08921,-16.6212c0.16053,-1.10088 0.3924,-1.08801 0.44307,-1.78375c0.03034,-0.41655 8.36816,1.02136 22.07157,1.86288c13.3702,0.82106 25.36195,-0.51288 30.073,-1.24594z" fill="#808080"/></g><g stroke-width="0" stroke-linecap="round"><g data-paper-data="{&quot;index&quot;:null}"><path d="M230.52655,183.46161c-3.3445,5.7413 -8.91685,14.03066 -15.34626,20.24583c-9.9088,9.57864 -19.03735,16.10284 -23.05515,18.15608c-1.19181,0.60906 -2.94827,-0.39785 -3.34563,-0.88977c-7.40628,-9.16858 -10.2112,-15.56837 -11.6366,-19.77413c-0.3432,-1.01262 -0.53165,-1.89911 -0.72368,-2.66588c-0.11426,-0.45623 0.25077,-1.60807 1.63947,-1.90615c3.56263,-0.7647 11.66925,-2.19228 23.04635,-5.48454c10.57429,-3.05994 19.75978,-7.27106 26.02575,-10.58706c2.87578,-1.52189 5.82069,-1.2571 3.39576,2.90563z" fill="#000000"/><path d="M228.58114,182.5335c0.8803,-0.52555 -6.61288,12.56791 -16.04081,20.9784c-10.92147,9.74288 -20.62344,15.52854 -21.24417,14.82351c-6.59717,-7.4932 -8.91111,-12.69979 -10.02894,-16.06771c-0.40743,-1.22751 -0.49912,-2.21623 -0.80378,-2.97465c-0.1824,-0.45408 7.66715,-1.36908 20.81887,-5.15555c12.8319,-3.69439 23.29429,-9.21324 27.29885,-11.604z" fill="#808080"/></g></g><path d="M301.83688,207.87701c-0.31024,0.1826 -29.20756,10.34574 -10.74363,-19.05348c-0.01637,-0.0008 1.00315,-0.58736 1.36518,-0.09764c0.55784,0.83843 -0.34013,1.88812 0.04711,1.66338c-14.56621,23.57181 7.99872,15.14157 7.8566,15.07309c0.53219,-0.34259 -1.65242,-3.67754 1.84965,-6.47098c3.68232,-2.93723 7.97736,-0.66672 9.55719,2.31467c1.34747,2.54289 0.24838,7.08649 -3.32072,8.34667c-3.67726,1.29836 -6.46278,-1.86321 -6.6114,-1.77573z" data-paper-data="{&quot;index&quot;:null}" fill="#000000" stroke-width="0" stroke-linecap="butt"/><path d="M243.39104,220.20196c0.04767,-0.35998 6.09836,-31.75866 7.75908,-33.87373c0.01748,-0.02225 1.0258,-0.6696 0.8629,0.50561c-0.92996,6.70895 -4.92881,29.18252 -4.78594,29.09372c2.79823,-1.73908 5.49332,-2.68604 8.54043,-2.71048c5.24814,-0.0421 6.48425,3.9419 5.64831,6.84029c-0.26709,0.92606 -3.49855,1.72125 -8.74669,1.76335c-5.24814,0.0421 -9.40209,-0.68263 -9.27809,-1.61875z" fill="#000000" stroke-width="0" stroke-linecap="butt"/><path d="M275.46573,218.17526c0.00837,-0.33857 2.63024,-29.86954 4.05998,-31.85879c0.01505,-0.02093 0.95268,-0.62977 0.91811,0.47553c-0.19733,6.30988 -1.742,27.44664 -1.60882,27.36312c2.60833,-1.63563 5.2,-2.52626 8.24445,-2.54925c5.24355,-0.0396 6.9147,3.70742 6.39529,6.4334c-0.16596,0.87097 -3.31058,1.61886 -8.55413,1.65846c-5.24356,0.0396 -9.47664,-0.64202 -9.45488,-1.52246z" fill="#000000" stroke-width="0" stroke-linecap="butt"/><g stroke-width="0" stroke-linecap="round"><path d="M265.73478,163.70057c21.08995,0.14116 37.11413,-1.91864 44.00505,-2.48522c1.19368,-0.09816 -0.01224,17.39362 -0.01224,17.39362c0,0 3.38621,15.5775 2.37516,15.54841c-1.66693,-0.04799 -12.05174,-0.85574 -26.44708,-1.16869c-9.65804,-0.20996 -22.87608,-0.32425 -32.39371,-0.13452c-20.88838,0.41641 -29.63609,1.82874 -31.67195,1.86998c-0.92522,0.01875 1.6273,-15.96844 1.6273,-15.96844c0,0 -1.55461,-17.91124 -0.05557,-17.78161c0,0 26.79328,2.62083 42.57304,2.72646z" fill="#000000"/><path d="M265.06909,165.90392c19.56261,0.1197 35.98324,-1.62692 42.37512,-2.10736c1.10723,-0.08324 -0.01135,14.74902 -0.01135,14.74902c0,0 3.14096,13.20903 2.20314,13.18436c-1.54621,-0.04069 -12.73587,-0.72564 -26.0887,-0.991c-8.9586,-0.17803 -21.21939,-0.27496 -30.04775,-0.11407c-19.37564,0.3531 -27.48983,1.5507 -29.37826,1.58567c-0.85822,0.0159 1.50946,-13.54053 1.50946,-13.54053c0,0 -1.44203,-15.18794 -0.05155,-15.07802c0,0 24.85291,2.22236 39.48989,2.31192z" fill="#808080"/></g><path d="M213.58487,175.66729c-3.20489,-2.64524 6.7877,-6.73454 8.64005,-7.13436c3.55259,-0.80172 13.46073,-1.24166 24.00579,-1.53212c23.32957,-0.64261 54.43498,-0.64397 63.13173,-0.64397c4.59463,0 4.10274,1.73198 4.10274,1.73198c0,0 0.49189,1.24583 -4.10274,1.24583c-8.76043,0 -39.87709,-0.07566 -63.26684,0.56377c-9.97155,0.2726 -17.07378,0.66907 -21.81367,1.75387c-0.99569,0.33749 -2.07611,0.58904 -2.97008,1.1796c-2.97383,1.96452 -5.30912,4.83104 -7.72698,2.8354z" fill="#000000" stroke-width="0" stroke-linecap="butt"/><g stroke-width="0" stroke-linecap="butt"><path d="M260.93796,150.88777c9.00863,0.66715 15.61767,8.65968 14.76169,17.85181c-0.85597,9.19212 -8.85282,16.10299 -17.86146,15.43583c-9.00863,-0.66715 -15.61767,-8.65968 -14.76169,-17.85181c0.85598,-9.19212 8.85283,-16.10298 17.86146,-15.43583z" fill="#000000"/><path d="M245.95797,166.50051c0.72475,-7.84591 7.49555,-13.74466 15.12302,-13.17521c7.62747,0.56944 13.22324,7.39144 12.49849,15.23735c-0.72475,7.84591 -7.49555,13.74466 -15.12302,13.17521c-7.62747,-0.56944 -13.22325,-7.39144 -12.4985,-15.23735z" fill="#808080"/><path d="M307.27635,165.98186c0.74463,7.99636 -5.00466,14.94918 -12.8414,15.52955c-7.83674,0.58037 -14.79331,-5.43149 -15.53794,-13.42785c-0.74462,-7.99636 5.00466,-14.94918 12.8414,-15.52954c7.83674,-0.58037 14.79331,5.43148 15.53794,13.42785z" fill="#000000"/><path d="M304.76973,166.13575c0.63047,6.82527 -4.23737,12.75982 -10.87262,13.25519c-6.63525,0.49537 -12.52527,-4.63603 -13.15573,-11.4613c-0.63046,-6.82527 4.23738,-12.75982 10.87262,-13.25519c6.63525,-0.49537 12.52527,4.63603 13.15573,11.4613z" fill="#808080"/></g><path d="M256.4113,143.24154c-1.62233,-0.04386 -2.68434,-0.73956 -2.37208,-1.55391v0c0.31226,-0.81434 1.88059,-1.43894 3.50292,-1.39508l5.55874,0.15026c1.62234,0.04386 2.68435,0.73956 2.37208,1.5539v0c-0.31227,0.81434 -1.88059,1.43895 -3.50292,1.39509z" fill="#000000" stroke-width="0" stroke-linecap="butt"/><path d="M289.18477,143.26367c-1.62221,-0.04827 -3.15256,-0.76087 -3.41811,-1.59163v0c-0.26556,-0.83075 0.83423,-1.46506 2.45644,-1.41679l5.55831,0.16541c1.62221,0.04827 3.15256,0.76087 3.41811,1.59163v0c0.26556,0.83075 -0.83423,1.46506 -2.45644,1.41678z" data-paper-data="{&quot;index&quot;:null}" fill="#000000" stroke-width="0" stroke-linecap="butt"/><path d="M253.65052,160.87809c2.37052,0 4.2922,2.9948 4.2922,6.68908c0,3.69427 -1.92168,6.68908 -4.2922,6.68908c-2.37052,0 -4.29218,-2.9948 -4.29218,-6.68908c0,-3.69427 1.92167,-6.68908 4.29218,-6.68908z" fill="#000000" stroke-width="0" stroke-linecap="butt"/><path d="M290.19174,166.89678c0,3.21371 -1.67169,5.81892 -3.73384,5.81892c-2.06214,0 -3.73384,-2.60523 -3.73384,-5.81892c0,-3.21371 1.67169,-5.81892 3.73384,-5.81892c2.06214,0 3.73384,2.60523 3.73384,5.81892z" fill="#000000" stroke-width="0" stroke-linecap="butt"/><path d="M233.32813,210.4223c-0.35998,0.00242 -30.4579,-5.69497 0.25901,-21.87222c-0.01377,-0.0089 1.16244,-0.00516 1.2301,0.60009c0.06222,1.00513 -1.24106,1.46302 -0.79334,1.46276c-24.4225,13.08993 -0.67226,17.11124 -0.76089,16.98073c0.63224,-0.02954 0.41442,-4.01036 4.84515,-4.67112c4.65876,-0.69477 7.23625,3.42337 7.1081,6.79504c-0.10931,2.87577 -3.33858,6.2557 -7.05845,5.55628c-3.83259,-0.72062 -4.65723,-4.85276 -4.82968,-4.8516z" data-paper-data="{&quot;index&quot;:null}" fill="#000000" stroke-width="0" stroke-linecap="butt"/><path d="M241.2632,186.4596c-1.25,0 -1.25,-1.25 -1.25,-1.25v-0.39477c0.00376,-2.5771 0.71658,-4.90108 0.99457,-7.44128c0,0 0.13804,-1.24235 1.38039,-1.10431c1.24236,0.13804 1.10432,1.38039 1.10432,1.38039c-0.17077,1.51613 -0.50798,2.95641 -0.73851,4.42192c4.98653,0.56397 9.84937,2.07909 14.7558,3.09937c7.20044,1.49731 14.42515,2.87401 21.63386,4.32848l2.10448,0.1895c0,0 1.24487,0.11317 1.13169,1.35804c-0.11317,1.24487 -1.35803,1.1317 -1.35803,1.1317l-2.23799,-0.20526c-7.26242,-1.45257 -14.53919,-2.84788 -21.7908,-4.35645c-4.80869,-1.00036 -9.58849,-2.51294 -14.47767,-3.0584c-0.00152,0.08518 -0.00224,0.17061 -0.00211,0.25632v0.39477c0,0 0,1.25 -1.25,1.25z" fill="#000000" stroke-width="0.5" stroke-linecap="butt"/></g></g></svg>