<svg version="1.1" xmlns="http://www.w3.org/2000/svg" xmlns:xlink="http://www.w3.org/1999/xlink" width="146.6327" height="87.96125" viewBox="0,0,146.6327,87.96125"><g transform="translate(-169.58855,-132.66318)"><g data-paper-data="{&quot;isPaintingLayer&quot;:true}" fill-rule="nonzero" stroke-linejoin="miter" stroke-miterlimit="10" stroke-dasharray="" stroke-dashoffset="0" style="mix-blend-mode: normal"><g stroke="none" stroke-width="0" stroke-linecap="round"><path d="M226.78966,185.13059c-6.52251,1.18594 -15.94935,-4.1887 -24.18718,1.52663c-8.23903,5.71617 -26.78838,-2.2644 -31.189,-3.60177c-1.30536,-0.39671 -1.87862,-2.06734 -1.821,-2.59589c1.07385,-9.8515 3.55651,-15.25177 5.49432,-18.53977c0.46655,-0.79166 0.95709,-1.41479 1.36011,-1.97189c0.2398,-0.33148 1.32413,-0.76041 2.55328,-0.06346c3.15327,1.78796 7.73193,14.15459 20.77966,11.25954c9.00459,-1.99796 19.63787,8.18918 26.58161,10.20994c3.18685,0.92744 5.15738,2.9168 0.42821,3.77667z" fill="#040404"/><path d="M223.19631,183.63966c-2.83883,0.51616 -7.64523,-1.21906 -11.73681,-1.56778c-3.03552,-0.25872 -8.3746,0.33384 -11.0346,2.17932c-6.35711,4.59934 -23.2529,-1.85255 -26.58917,-2.86645c-0.98964,-0.30076 -1.42424,-1.56733 -1.38057,-1.96804c0.81412,-7.46877 2.69631,-11.5629 4.16543,-14.05565c0.3537,-0.60018 0.7256,-1.0726 1.03114,-1.49495c0.1818,-0.25131 1.00387,-0.57649 1.93573,-0.04812c2.3906,1.35551 8.67239,11.76569 20.11155,9.27102c6.8267,-1.51472 16.07395,6.28477 21.33824,7.81678c2.41606,0.70313 5.74438,2.08195 2.15903,2.73386z" fill="#070707"/><path d="M173.51819,181.4101c-0.98964,-0.30076 -1.42424,-1.56733 -1.38057,-1.96804c0.81412,-7.46877 2.69631,-11.5629 4.16543,-14.05565c0.3537,-0.60018 0.7256,-1.0726 1.03114,-1.49495c0.1818,-0.25131 1.00387,-0.57649 1.93573,-0.04812c2.3906,1.35551 8.67239,11.76569 20.11155,9.27102c6.8267,-1.51472 16.07395,6.28477 21.33824,7.81678c1.66454,0.48442 3.76209,1.28956 3.73349,1.95675c-1.15069,-0.2463 -17.252,-7.42837 -27.02671,-3.2417c-4.19588,1.79716 -4.84776,3.29178 -7.34652,3.99595c-4.97766,1.40275 -15.70081,-1.97041 -16.56178,-2.23207z" fill="#060606"/></g><g stroke="none" stroke-width="0" stroke-linecap="round"><path d="M229.27704,180.56233c-3.89787,5.36249 -14.42721,7.98641 -16.43727,17.80917c-2.01037,9.82418 -20.93673,16.86411 -25.04282,18.9363c-1.218,0.61467 -2.78642,-0.19758 -3.10979,-0.6196c-6.02744,-7.86607 -7.9618,-13.4861 -8.83131,-17.20229c-0.20937,-0.89474 -0.28499,-1.68417 -0.37832,-2.3654c-0.05552,-0.40534 0.43239,-1.46443 1.80266,-1.80935c3.51524,-0.88483 15.36758,4.89616 22.80394,-6.20903c5.13201,-7.66401 19.85763,-7.64085 26.27486,-10.97526c2.94521,-1.53032 5.74423,-1.45262 2.91806,2.43547z" fill="#040404"/><path d="M225.64868,181.96591c-1.69649,2.33394 -6.37083,4.39866 -9.57061,6.97236c-2.37391,1.90942 -5.82578,6.02544 -6.47481,9.1972c-1.42073,7.71674 -18.09549,14.72013 -21.20848,16.29113c-0.92343,0.466 -2.11247,-0.1498 -2.35766,-0.46974c-4.56963,-5.96355 -6.03613,-10.22427 -6.69532,-13.04165c-0.15874,-0.67833 -0.21606,-1.27682 -0.2868,-1.79328c-0.04211,-0.3073 0.32781,-1.11025 1.36666,-1.37174c2.66503,-0.67083 14.39779,2.51903 20.94739,-7.18565c3.89076,-5.81034 15.96499,-6.55663 20.83011,-9.08455c2.23287,-1.16019 5.59213,-2.46177 3.44954,0.48592z" fill="#040404"/><path d="M188.18262,214.66426c-0.92343,0.466 -2.11247,-0.1498 -2.35766,-0.46974c-4.56963,-5.96355 -6.03613,-10.22427 -6.69532,-13.04165c-0.15874,-0.67833 -0.21606,-1.27682 -0.2868,-1.79328c-0.04211,-0.3073 0.32781,-1.11025 1.36666,-1.37174c2.66503,-0.67083 14.39779,2.51903 20.94739,-7.18565c3.89076,-5.81034 15.96499,-6.55663 20.83011,-9.08455c1.53833,-0.79931 3.61131,-1.66574 4.05143,-1.16349c-1.00225,0.61662 -17.60675,6.54323 -21.78407,16.32196c-1.79315,4.1976 -1.23229,5.72871 -2.553,7.96374c-2.63091,4.4523 -12.71538,9.41897 -13.51873,9.8244z" fill="#0a0a0a"/></g><path d="M303.45948,192.55253c-0.17194,0.01333 -0.64638,4.20017 -4.40484,5.24035c-3.64791,1.00959 -7.14985,-2.08699 -7.50046,-4.94339c-0.41108,-3.34897 1.81117,-7.66918 6.51184,-7.36841c4.47057,0.28603 4.58811,4.27108 5.22059,4.24738c-0.07734,0.13749 23.2509,-5.86573 -2.18536,-16.8567c0.44618,-0.03737 -0.89098,-0.38411 -0.91347,-1.39091c0.01655,-0.60878 1.18827,-0.71137 1.17531,-0.70135c31.96785,13.53836 2.45528,21.7452 2.09637,21.77306z" data-paper-data="{&quot;index&quot;:null}" fill="#000000" stroke="none" stroke-width="0" stroke-linecap="butt"/><path d="M242.00306,219.00393c0.04767,-0.35998 6.09836,-31.75866 7.75908,-33.87373c0.01748,-0.02225 1.0258,-0.6696 0.8629,0.50561c-0.92996,6.70895 -4.92881,29.18252 -4.78594,29.09372c2.79823,-1.73908 5.49332,-2.68604 8.54043,-2.71048c5.24814,-0.0421 6.48425,3.9419 5.64831,6.84029c-0.26709,0.92606 -3.49855,1.72125 -8.74669,1.76335c-5.24814,0.0421 -9.40209,-0.68263 -9.27809,-1.61875z" data-paper-data="{&quot;index&quot;:null}" fill="#000000" stroke="none" stroke-width="0" stroke-linecap="butt"/><path d="M274.07775,216.97723c0.00837,-0.33857 2.63024,-29.86954 4.05998,-31.85879c0.01505,-0.02093 0.95268,-0.62977 0.91811,0.47553c-0.19733,6.30988 -1.742,27.44664 -1.60882,27.36312c2.60833,-1.63563 5.2,-2.52626 8.24445,-2.54925c5.24355,-0.0396 6.9147,3.70742 6.39529,6.4334c-0.16596,0.87097 -3.31058,1.61886 -8.55413,1.65846c-5.24356,0.0396 -9.47664,-0.64202 -9.45488,-1.52246z" data-paper-data="{&quot;index&quot;:null}" fill="#000000" stroke="none" stroke-width="0" stroke-linecap="butt"/><g data-paper-data="{&quot;index&quot;:null}" stroke="none" stroke-width="0"><path d="M264.3468,159.92413c21.08995,0.14116 37.11413,-1.91864 44.00505,-2.48522c1.19368,-0.09816 -0.01224,17.39362 -0.01224,17.39362c0,0 3.38621,15.5775 2.37516,15.54841c-1.66693,-0.04799 -12.05174,0.14426 -26.44708,-0.16869c-9.65804,-0.20996 -22.87608,-0.32425 -32.39371,-0.13452c-20.88838,0.41641 -29.63609,0.82874 -31.67195,0.86998c-0.92522,0.01875 1.6273,-15.96844 1.6273,-15.96844c0,0 -1.55461,-17.91124 -0.05557,-17.78161c0,0 26.79328,2.62083 42.57304,2.72646z" fill="#040404" stroke-linecap="round"/><path d="M263.68111,162.12748c19.56261,0.1197 35.98324,-1.62692 42.37512,-2.10736c1.10723,-0.08324 -0.01135,14.74902 -0.01135,14.74902c0,0 3.14096,13.20903 2.20314,13.18436c-1.54621,-0.04069 -12.73587,-0.72564 -26.0887,-0.991c-8.9586,-0.17803 -21.21939,-0.27496 -30.04775,-0.11407c-19.37564,0.3531 -27.48983,1.5507 -29.37826,1.58567c-0.85822,0.0159 1.50946,-13.54053 1.50946,-13.54053c0,0 -1.44203,-15.18794 -0.05155,-15.07802c0,0 24.85291,2.22236 39.48989,2.31192z" fill="#0a0a0a" stroke-linecap="round"/><path d="M308.26779,187.82646c-1.54621,-0.04069 -15.17894,0.41723 -28.53177,0.15187c-8.9586,-0.17803 -21.21939,-0.27496 -30.04775,-0.11407c-19.37564,0.3531 -24.94212,0.40915 -26.83055,0.44413c-0.85822,0.0159 1.50946,-13.54053 1.50946,-13.54053c0,0 0.4574,7.44181 29.94832,8.56149c11.34094,0.43058 27.26045,0.73451 36.30675,-0.38492c9.89009,-1.22385 16.40632,-4.1776 16.46382,-3.90998c0,0 1.75,8.80696 1.18172,8.79202z" fill="#040404" stroke-linecap="round"/><path d="M303.57722,174.63076c-11.50769,0.0734 -24.7733,-1.53458 -42.02526,-1.85727c-17.15429,-0.32087 -29.01697,0.59033 -35.25162,1.16996c-0.42033,-0.22695 13.06688,-2.55166 35.42451,-2.27925c14.71398,0.17928 42.23291,2.73923 41.85238,2.96655z" data-paper-data="{&quot;index&quot;:null}" fill="#000000" stroke-linecap="butt"/></g><path d="M214.34423,168.76861c0,0 7.5373,-4.70997 8.93716,-5.01212c3.55259,-0.80172 13.46073,-1.24166 24.00579,-1.53212c23.32957,-0.64261 65.41041,-0.64397 65.41041,-0.64397l0.84682,1.4582l-0.84682,1.51961c0,0 -42.15577,-0.07566 -65.54552,0.56377c-9.97155,0.2726 -17.07378,0.66907 -21.81367,1.75387c-0.99569,0.33749 -2.07611,0.58904 -2.97008,1.1796c-1.91503,1.26507 -5.14328,3.37809 -5.14328,3.37809l-2.96931,-0.25406z" data-paper-data="{&quot;index&quot;:null}" fill="#000000" stroke="none" stroke-width="0" stroke-linecap="butt"/><path d="M225.65883,192.8705c-0.35796,-0.03821 -29.62101,-9.09462 2.72479,-21.70338c-0.01268,-0.0104 1.1556,0.12601 1.15455,0.73503c-0.05157,1.00573 -1.39818,1.31367 -0.95329,1.36392c-25.74329,10.25123 -2.59831,16.92617 -2.67165,16.78649c0.63154,0.04197 0.86419,-3.93801 5.34118,-4.09471c4.7074,-0.16477 6.80386,4.21785 6.29617,7.55354c-0.43303,2.84508 -4.02298,5.83914 -7.6402,4.72454c-3.72683,-1.14838 -4.08005,-5.34717 -4.25153,-5.36547z" data-paper-data="{&quot;index&quot;:null}" fill="#000000" stroke="none" stroke-width="0" stroke-linecap="butt"/><path d="M296.90099,177.76664l-20.64389,-12.09702l11.94054,-21.17877l21.31344,13.06248z" fill="#000000" stroke="#000000" stroke-width="0" stroke-linecap="butt"/><path d="M296.47778,175.20035l-17.51347,-10.26264l10.1299,-17.96725l18.08149,11.08169z" fill="#ffffff" stroke="#000000" stroke-width="0" stroke-linecap="butt"/><path d="M287.34432,164.92007l-3.99357,-2.16999l4.21326,-7.66485l3.99357,2.16999z" fill="#000000" stroke="#000000" stroke-width="0" stroke-linecap="butt"/><path d="M275.09233,180.64319c0.09832,0.99516 -0.89684,1.09347 -0.89684,1.09347l-1.97523,0.19426c-9.70633,0.14405 -20.79519,0.43226 -29.0649,-5.22385c0,0 -0.82541,-0.56454 -0.26087,-1.38995c0.56454,-0.82541 1.38995,-0.26087 1.38995,-0.26087c7.86805,5.38139 18.58792,5.00674 27.823,4.87784l1.89142,-0.18775c0,0 0.99516,-0.09832 1.09347,0.89684z" fill="#000000" stroke="none" stroke-width="0.5" stroke-linecap="butt"/><path d="M248.4831,175.77592v-35.00246h22.33493v35.00245z" fill="#000000" stroke="#000000" stroke-width="0" stroke-linecap="butt"/><path d="M250.56127,173.68269v-30.78529h18.24804v30.78529z" fill="#ffffff" stroke="#000000" stroke-width="0" stroke-linecap="butt"/><path d="M254.33868,164.17119v-12.01891h5.78315v12.01891z" fill="#000000" stroke="#000000" stroke-width="0" stroke-linecap="butt"/><path d="M250.79592,134.91318v-2.25h12v2.25z" fill="#000000" stroke="#000000" stroke-width="0" stroke-linecap="butt"/></g></g></svg>